<svg width="129" height="59" viewBox="0 0 129 59" fill="none" xmlns="http://www.w3.org/2000/svg">
<path d="M29.5 13.2012L28.4183 13.0537L14.75 36.6291C15.34 37.1454 15.7333 37.8091 15.9054 38.5466H43.0946C43.2667 37.8091 43.66 37.1454 44.25 36.6291L30.5817 13.0537L29.5 13.2012ZM16.225 40.6362L26.7467 46.8558C27.4596 46.192 28.4429 45.7987 29.5 45.7987C30.5571 45.7987 31.5404 46.192 32.2533 46.8558L42.775 40.6362H16.225ZM29.5 54.0833C28.4047 54.0833 27.3542 53.6482 26.5796 52.8736C25.8051 52.0991 25.37 51.0486 25.37 49.9533L25.5913 48.5766L15.0204 42.3079C14.2583 43.1929 13.1521 43.7337 11.8983 43.7337C10.803 43.7337 9.75251 43.2986 8.97798 42.5241C8.20346 41.7495 7.76833 40.6991 7.76833 39.6037C7.76833 37.6616 9.07125 36.0391 10.8658 35.572V23.01C8.82542 22.7395 7.25208 20.9941 7.25208 18.88C7.25208 17.7846 7.68721 16.7341 8.46173 15.9596C9.23626 15.1851 10.2867 14.75 11.3821 14.75C12.7342 14.75 13.9142 15.3891 14.6762 16.3725L25.5175 10.1529L25.37 9.04663C25.37 6.76038 27.2138 4.91663 29.5 4.91663C31.7863 4.91663 33.63 6.76038 33.63 9.04663L33.4825 10.1529L44.3238 16.3725C45.0858 15.3891 46.2658 14.75 47.6179 14.75C48.7133 14.75 49.7637 15.1851 50.5383 15.9596C51.3128 16.7341 51.7479 17.7846 51.7479 18.88C51.7479 20.9941 50.1746 22.7395 48.1342 23.01V35.572C49.9287 36.0391 51.2317 37.6616 51.2317 39.6037C51.2317 40.6991 50.7965 41.7495 50.022 42.5241C49.2475 43.2986 48.197 43.7337 47.1017 43.7337C45.8479 43.7337 44.7417 43.1929 43.9796 42.3079L33.4088 48.5766L33.63 49.9533C33.63 51.0486 33.1949 52.0991 32.4204 52.8736C31.6458 53.6482 30.5953 54.0833 29.5 54.0833ZM26.55 11.9475L15.4875 18.29L15.5367 18.88C15.5367 20.6254 14.455 22.125 12.9308 22.7395L13.0046 35.6458L26.55 11.9475ZM32.45 11.9475L45.9954 35.6458L46.0692 22.7395C44.545 22.125 43.4633 20.6254 43.4633 18.88L43.5125 18.29L32.45 11.9475Z" fill="#AAAAAA"/>
<path d="M71.9487 26C71.7924 25.5218 71.5865 25.0933 71.3308 24.7145C71.0798 24.331 70.7792 24.0043 70.4288 23.7344C70.0832 23.4645 69.6902 23.2585 69.2498 23.1165C68.8095 22.9744 68.3265 22.9034 67.801 22.9034C66.9392 22.9034 66.1556 23.1259 65.4501 23.571C64.7446 24.0161 64.1835 24.6719 63.7669 25.5384C63.3502 26.4048 63.1419 27.4678 63.1419 28.7273C63.1419 29.9867 63.3526 31.0497 63.774 31.9162C64.1954 32.7827 64.7659 33.4384 65.4856 33.8835C66.2053 34.3286 67.015 34.5511 67.9146 34.5511C68.7479 34.5511 69.4818 34.3736 70.1163 34.0185C70.7555 33.6586 71.2527 33.152 71.6078 32.4986C71.9676 31.8404 72.1476 31.0663 72.1476 30.1761L72.6873 30.2898H68.3123V28.7273H73.8521V30.2898C73.8521 31.4877 73.5964 32.5294 73.0851 33.4148C72.5784 34.3002 71.8777 34.9867 70.9828 35.4744C70.0926 35.9574 69.0699 36.1989 67.9146 36.1989C66.6267 36.1989 65.4951 35.8958 64.5197 35.2898C63.5491 34.6837 62.7915 33.822 62.247 32.7045C61.7072 31.5871 61.4373 30.2614 61.4373 28.7273C61.4373 27.5767 61.5912 26.5421 61.899 25.6236C62.2115 24.7003 62.6518 23.9143 63.22 23.2656C63.7882 22.617 64.4605 22.1198 65.237 21.7741C66.0136 21.4285 66.8682 21.2557 67.801 21.2557C68.568 21.2557 69.283 21.3717 69.9458 21.6037C70.6135 21.831 71.2077 22.1553 71.7285 22.5767C72.2541 22.9934 72.6921 23.4929 73.0424 24.0753C73.3928 24.6529 73.6343 25.2945 73.7669 26H71.9487ZM75.6415 36V25.0909H77.2608V26.7386H77.3745C77.5733 26.1989 77.9332 25.7609 78.454 25.4247C78.9748 25.0885 79.562 24.9205 80.2154 24.9205C80.3385 24.9205 80.4924 24.9228 80.677 24.9276C80.8617 24.9323 81.0014 24.9394 81.0961 24.9489V26.6534C81.0392 26.6392 80.909 26.6179 80.7054 26.5895C80.5066 26.5563 80.2959 26.5398 80.0733 26.5398C79.543 26.5398 79.0695 26.651 78.6529 26.8736C78.2409 27.0914 77.9142 27.3944 77.6728 27.7827C77.436 28.1662 77.3176 28.6042 77.3176 29.0966V36H75.6415ZM85.2931 36.2557C84.6019 36.2557 83.9745 36.1255 83.411 35.8651C82.8476 35.5999 82.4002 35.2188 82.0687 34.7216C81.7373 34.2197 81.5716 33.6136 81.5716 32.9034C81.5716 32.2784 81.6947 31.7718 81.9409 31.3835C82.1871 30.9905 82.5162 30.6828 82.9281 30.4602C83.34 30.2377 83.7946 30.072 84.2917 29.9631C84.7936 29.8494 85.2979 29.7595 85.8045 29.6932C86.4674 29.608 87.0048 29.544 87.4167 29.5014C87.8334 29.4541 88.1364 29.3759 88.3258 29.267C88.5199 29.1581 88.617 28.9687 88.617 28.6989V28.642C88.617 27.9413 88.4252 27.3968 88.0417 27.0085C87.6629 26.6203 87.0877 26.4261 86.3159 26.4261C85.5157 26.4261 84.8883 26.6013 84.4338 26.9517C83.9792 27.3021 83.6596 27.6761 83.475 28.0739L81.8841 27.5057C82.1681 26.8428 82.5469 26.3267 83.0204 25.9574C83.4986 25.5833 84.0195 25.3229 84.5829 25.1761C85.1511 25.0246 85.7098 24.9489 86.2591 24.9489C86.6094 24.9489 87.0119 24.9915 87.4664 25.0767C87.9257 25.1572 88.3684 25.3253 88.7946 25.581C89.2254 25.8366 89.5829 26.2225 89.867 26.7386C90.1511 27.2547 90.2931 27.946 90.2931 28.8125V36H88.617V34.5227H88.5318C88.4181 34.7595 88.2288 35.0128 87.9636 35.2827C87.6984 35.5526 87.3457 35.7822 86.9054 35.9716C86.465 36.161 85.9276 36.2557 85.2931 36.2557ZM85.5488 34.75C86.2117 34.75 86.7704 34.6198 87.225 34.3594C87.6842 34.099 88.0299 33.7628 88.2619 33.3509C88.4986 32.9389 88.617 32.5057 88.617 32.0511V30.517C88.546 30.6023 88.3897 30.6804 88.1483 30.7514C87.9115 30.8177 87.6369 30.8769 87.3244 30.929C87.0166 30.9763 86.716 31.0189 86.4224 31.0568C86.1336 31.09 85.8992 31.1184 85.7193 31.142C85.2837 31.1989 84.8765 31.2912 84.4977 31.419C84.1236 31.5421 83.8206 31.7292 83.5886 31.9801C83.3613 32.2263 83.2477 32.5625 83.2477 32.9886C83.2477 33.571 83.4631 34.0114 83.894 34.3097C84.3296 34.6032 84.8812 34.75 85.5488 34.75ZM92.3525 40.0909V25.0909H93.9718V26.8239H94.1706C94.2937 26.6345 94.4642 26.393 94.682 26.0994C94.9045 25.8011 95.2218 25.536 95.6337 25.304C96.0504 25.0672 96.6138 24.9489 97.324 24.9489C98.2426 24.9489 99.0523 25.1785 99.753 25.6378C100.454 26.0971 101.001 26.7481 101.394 27.5909C101.787 28.4337 101.983 29.428 101.983 30.5739C101.983 31.7292 101.787 32.7306 101.394 33.5781C101.001 34.4209 100.456 35.0743 99.7601 35.5384C99.0641 35.9976 98.2615 36.2273 97.3525 36.2273C96.6517 36.2273 96.0906 36.1113 95.6692 35.8793C95.2478 35.6425 94.9235 35.375 94.6962 35.0767C94.4689 34.7737 94.2937 34.5227 94.1706 34.3239H94.0286V40.0909H92.3525ZM94.0002 30.5455C94.0002 31.3693 94.1209 32.0961 94.3624 32.7259C94.6039 33.3509 94.9566 33.8409 95.4206 34.196C95.8846 34.5464 96.4528 34.7216 97.1252 34.7216C97.8259 34.7216 98.4107 34.5369 98.8794 34.1676C99.3529 33.7936 99.708 33.2917 99.9448 32.6619C100.186 32.0275 100.307 31.322 100.307 30.5455C100.307 29.7784 100.189 29.0871 99.9519 28.4716C99.7199 27.8513 99.3671 27.3613 98.8936 27.0014C98.4249 26.6368 97.8354 26.4545 97.1252 26.4545C96.4434 26.4545 95.8704 26.6274 95.4064 26.973C94.9424 27.3139 94.592 27.7921 94.3553 28.4077C94.1185 29.0185 94.0002 29.7311 94.0002 30.5455ZM105.216 29.4375V36H103.54V21.4545H105.216V26.7955H105.358C105.614 26.232 105.997 25.7846 106.509 25.4531C107.025 25.117 107.711 24.9489 108.568 24.9489C109.312 24.9489 109.963 25.098 110.521 25.3963C111.08 25.6899 111.513 26.142 111.821 26.7528C112.134 27.3589 112.29 28.1307 112.29 29.0682V36H110.614V29.1818C110.614 28.3153 110.389 27.6454 109.939 27.1719C109.494 26.6937 108.876 26.4545 108.085 26.4545C107.536 26.4545 107.044 26.5705 106.608 26.8026C106.177 27.0346 105.836 27.3731 105.585 27.8182C105.339 28.2633 105.216 28.803 105.216 29.4375ZM121.8 40.0909V34.3239H121.657C121.534 34.5227 121.359 34.7737 121.132 35.0767C120.905 35.375 120.58 35.6425 120.159 35.8793C119.738 36.1113 119.176 36.2273 118.476 36.2273C117.567 36.2273 116.764 35.9976 116.068 35.5384C115.372 35.0743 114.827 34.4209 114.434 33.5781C114.041 32.7306 113.845 31.7292 113.845 30.5739C113.845 29.428 114.041 28.4337 114.434 27.5909C114.827 26.7481 115.374 26.0971 116.075 25.6378C116.776 25.1785 117.586 24.9489 118.504 24.9489C119.214 24.9489 119.775 25.0672 120.187 25.304C120.604 25.536 120.921 25.8011 121.139 26.0994C121.362 26.393 121.534 26.6345 121.657 26.8239H121.856V25.0909H123.476V40.0909H121.8ZM118.703 34.7216C119.375 34.7216 119.943 34.5464 120.407 34.196C120.872 33.8409 121.224 33.3509 121.466 32.7259C121.707 32.0961 121.828 31.3693 121.828 30.5455C121.828 29.7311 121.71 29.0185 121.473 28.4077C121.236 27.7921 120.886 27.3139 120.422 26.973C119.958 26.6274 119.385 26.4545 118.703 26.4545C117.993 26.4545 117.401 26.6368 116.927 27.0014C116.459 27.3613 116.106 27.8513 115.869 28.4716C115.637 29.0871 115.521 29.7784 115.521 30.5455C115.521 31.322 115.64 32.0275 115.876 32.6619C116.118 33.2917 116.473 33.7936 116.942 34.1676C117.415 34.5369 118.002 34.7216 118.703 34.7216ZM127.22 21.4545V36H125.544V21.4545H127.22Z" fill="#AAAAAA"/>
</svg>
