<svg width="148" height="57" viewBox="0 0 148 57" fill="none" xmlns="http://www.w3.org/2000/svg">
<path d="M3.5625 3.5625V53.4375H53.4375V3.5625H3.5625ZM30.2812 42.3047C30.2812 47.1597 27.4134 49.5265 23.262 49.5265C19.5125 49.5265 17.336 47.585 16.2316 45.2415L20.048 42.9315C20.7838 44.2373 21.3427 45.3417 22.9492 45.3417C24.2851 45.3417 25.3828 44.7394 25.3828 42.396V26.7188H30.2812V42.3047ZM41.3417 49.4152C36.9899 49.4152 34.1777 47.4514 32.8051 44.7394L36.627 42.5273C37.6289 44.1683 38.937 45.2616 41.2471 45.2616C43.1886 45.2616 44.3164 44.4021 44.3164 43.0628C44.3164 41.4564 43.1552 40.8875 41.0122 39.9456L39.841 39.4424C36.4588 38.0041 34.2167 36.1961 34.2167 32.3787C34.2167 28.864 36.8941 26.2968 41.079 26.2968C44.0592 26.2968 46.2001 27.2231 47.742 29.935L44.0859 32.2852C43.2822 30.8457 42.416 30.2812 41.0734 30.2812C39.7007 30.2812 38.8301 31.1518 38.8301 32.2852C38.8301 33.6912 39.7007 34.2601 41.7091 35.1307L42.8803 35.6328C46.8647 37.3406 49.1079 39.084 49.1079 42.9983C49.1091 47.2176 45.7948 49.4152 41.3417 49.4152Z" fill="#AAAAAA"/>
<path d="M66.7944 21.4545H68.5558V31.8523C68.5558 32.7803 68.3853 33.5687 68.0444 34.2173C67.7035 34.866 67.2229 35.3584 66.6026 35.6946C65.9824 36.0308 65.2508 36.1989 64.408 36.1989C63.6126 36.1989 62.9047 36.0545 62.2844 35.7656C61.6642 35.4721 61.1765 35.0554 60.8214 34.5156C60.4663 33.9759 60.2887 33.3343 60.2887 32.5909H62.0217C62.0217 33.0028 62.1235 33.3627 62.3271 33.6705C62.5354 33.9735 62.8195 34.2102 63.1793 34.3807C63.5392 34.5511 63.9487 34.6364 64.408 34.6364C64.9147 34.6364 65.3455 34.5298 65.7006 34.3168C66.0558 34.1037 66.3256 33.7912 66.5103 33.3793C66.6997 32.9626 66.7944 32.4536 66.7944 31.8523V21.4545ZM74.0685 36.2557C73.3772 36.2557 72.7499 36.1255 72.1864 35.8651C71.623 35.5999 71.1755 35.2188 70.8441 34.7216C70.5127 34.2197 70.3469 33.6136 70.3469 32.9034C70.3469 32.2784 70.4701 31.7718 70.7163 31.3835C70.9625 30.9905 71.2915 30.6828 71.7035 30.4602C72.1154 30.2377 72.57 30.072 73.0671 29.9631C73.569 29.8494 74.0733 29.7595 74.5799 29.6932C75.2428 29.608 75.7802 29.544 76.1921 29.5014C76.6088 29.4541 76.9118 29.3759 77.1012 29.267C77.2953 29.1581 77.3924 28.9687 77.3924 28.6989V28.642C77.3924 27.9413 77.2006 27.3968 76.8171 27.0085C76.4383 26.6203 75.863 26.4261 75.0913 26.4261C74.2911 26.4261 73.6637 26.6013 73.2092 26.9517C72.7546 27.3021 72.435 27.6761 72.2504 28.0739L70.6594 27.5057C70.9435 26.8428 71.3223 26.3267 71.7958 25.9574C72.274 25.5833 72.7949 25.3229 73.3583 25.1761C73.9265 25.0246 74.4852 24.9489 75.0344 24.9489C75.3848 24.9489 75.7873 24.9915 76.2418 25.0767C76.7011 25.1572 77.1438 25.3253 77.57 25.581C78.0008 25.8366 78.3583 26.2225 78.6424 26.7386C78.9265 27.2547 79.0685 27.946 79.0685 28.8125V36H77.3924V34.5227H77.3072C77.1935 34.7595 77.0041 35.0128 76.739 35.2827C76.4738 35.5526 76.1211 35.7822 75.6808 35.9716C75.2404 36.161 74.703 36.2557 74.0685 36.2557ZM74.3242 34.75C74.9871 34.75 75.5458 34.6198 76.0004 34.3594C76.4596 34.099 76.8053 33.7628 77.0373 33.3509C77.274 32.9389 77.3924 32.5057 77.3924 32.0511V30.517C77.3214 30.6023 77.1651 30.6804 76.9237 30.7514C76.6869 30.8177 76.4123 30.8769 76.0998 30.929C75.792 30.9763 75.4914 31.0189 75.1978 31.0568C74.909 31.09 74.6746 31.1184 74.4947 31.142C74.0591 31.1989 73.6519 31.2912 73.2731 31.419C72.899 31.5421 72.596 31.7292 72.364 31.9801C72.1367 32.2263 72.0231 32.5625 72.0231 32.9886C72.0231 33.571 72.2385 34.0114 72.6694 34.3097C73.105 34.6032 73.6566 34.75 74.3242 34.75ZM89.6577 25.0909L85.6236 36H83.919L79.8849 25.0909H81.7031L84.7145 33.7841H84.8281L87.8395 25.0909H89.6577ZM93.7482 36.2557C93.0569 36.2557 92.4296 36.1255 91.8661 35.8651C91.3027 35.5999 90.8552 35.2188 90.5238 34.7216C90.1924 34.2197 90.0266 33.6136 90.0266 32.9034C90.0266 32.2784 90.1497 31.7718 90.396 31.3835C90.6422 30.9905 90.9712 30.6828 91.3832 30.4602C91.7951 30.2377 92.2496 30.072 92.7468 29.9631C93.2487 29.8494 93.753 29.7595 94.2596 29.6932C94.9225 29.608 95.4599 29.544 95.8718 29.5014C96.2885 29.4541 96.5915 29.3759 96.7809 29.267C96.975 29.1581 97.0721 28.9687 97.0721 28.6989V28.642C97.0721 27.9413 96.8803 27.3968 96.4968 27.0085C96.118 26.6203 95.5427 26.4261 94.771 26.4261C93.9708 26.4261 93.3434 26.6013 92.8888 26.9517C92.4343 27.3021 92.1147 27.6761 91.93 28.0739L90.3391 27.5057C90.6232 26.8428 91.002 26.3267 91.4755 25.9574C91.9537 25.5833 92.4746 25.3229 93.038 25.1761C93.6062 25.0246 94.1649 24.9489 94.7141 24.9489C95.0645 24.9489 95.467 24.9915 95.9215 25.0767C96.3808 25.1572 96.8235 25.3253 97.2496 25.581C97.6805 25.8366 98.038 26.2225 98.3221 26.7386C98.6062 27.2547 98.7482 27.946 98.7482 28.8125V36H97.0721V34.5227H96.9869C96.8732 34.7595 96.6838 35.0128 96.4187 35.2827C96.1535 35.5526 95.8008 35.7822 95.3604 35.9716C94.9201 36.161 94.3827 36.2557 93.7482 36.2557ZM94.0039 34.75C94.6668 34.75 95.2255 34.6198 95.68 34.3594C96.1393 34.099 96.485 33.7628 96.717 33.3509C96.9537 32.9389 97.0721 32.5057 97.0721 32.0511V30.517C97.0011 30.6023 96.8448 30.6804 96.6033 30.7514C96.3666 30.8177 96.092 30.8769 95.7795 30.929C95.4717 30.9763 95.171 31.0189 94.8775 31.0568C94.5887 31.09 94.3543 31.1184 94.1744 31.142C93.7388 31.1989 93.3316 31.2912 92.9528 31.419C92.5787 31.5421 92.2757 31.7292 92.0437 31.9801C91.8164 32.2263 91.7028 32.5625 91.7028 32.9886C91.7028 33.571 91.9182 34.0114 92.3491 34.3097C92.7847 34.6032 93.3363 34.75 94.0039 34.75ZM108.535 27.5341L107.029 27.9602C106.934 27.7093 106.795 27.4654 106.61 27.2287C106.43 26.9872 106.184 26.7884 105.871 26.6321C105.559 26.4759 105.159 26.3977 104.671 26.3977C104.004 26.3977 103.447 26.5516 103.002 26.8594C102.562 27.1624 102.342 27.5483 102.342 28.017C102.342 28.4337 102.493 28.7628 102.796 29.0043C103.099 29.2457 103.573 29.447 104.217 29.608L105.836 30.0057C106.811 30.2424 107.538 30.6046 108.016 31.0923C108.495 31.5753 108.734 32.1979 108.734 32.9602C108.734 33.5852 108.554 34.1439 108.194 34.6364C107.839 35.1288 107.342 35.517 106.702 35.8011C106.063 36.0852 105.32 36.2273 104.472 36.2273C103.36 36.2273 102.439 35.9858 101.71 35.5028C100.98 35.0199 100.519 34.3144 100.325 33.3864L101.915 32.9886C102.067 33.5758 102.353 34.0161 102.775 34.3097C103.201 34.6032 103.757 34.75 104.444 34.75C105.225 34.75 105.845 34.5843 106.305 34.2528C106.769 33.9167 107.001 33.5142 107.001 33.0455C107.001 32.6667 106.868 32.3494 106.603 32.0938C106.338 31.8333 105.931 31.6392 105.381 31.5114L103.563 31.0852C102.564 30.8485 101.83 30.4815 101.362 29.9844C100.897 29.4825 100.665 28.8551 100.665 28.1023C100.665 27.4867 100.838 26.9422 101.184 26.4688C101.534 25.9953 102.01 25.6236 102.612 25.3537C103.218 25.0838 103.904 24.9489 104.671 24.9489C105.751 24.9489 106.598 25.1856 107.214 25.6591C107.834 26.1326 108.274 26.7576 108.535 27.5341ZM114.689 36.2273C113.666 36.2273 112.785 35.9858 112.047 35.5028C111.308 35.0199 110.74 34.3546 110.342 33.5071C109.944 32.6596 109.745 31.6913 109.745 30.6023C109.745 29.4943 109.949 28.5166 110.356 27.669C110.768 26.8168 111.341 26.1515 112.075 25.6733C112.814 25.1903 113.675 24.9489 114.66 24.9489C115.427 24.9489 116.118 25.0909 116.734 25.375C117.35 25.6591 117.854 26.0568 118.247 26.5682C118.64 27.0795 118.884 27.6761 118.978 28.358H117.302C117.174 27.8608 116.89 27.4205 116.45 27.0369C116.014 26.6487 115.427 26.4545 114.689 26.4545C114.035 26.4545 113.462 26.625 112.97 26.9659C112.482 27.3021 112.101 27.7779 111.826 28.3935C111.556 29.0043 111.422 29.7216 111.422 30.5455C111.422 31.3883 111.554 32.1222 111.819 32.7472C112.089 33.3722 112.468 33.8575 112.956 34.2031C113.448 34.5488 114.026 34.7216 114.689 34.7216C115.124 34.7216 115.52 34.6458 115.875 34.4943C116.23 34.3428 116.53 34.125 116.777 33.8409C117.023 33.5568 117.198 33.2159 117.302 32.8182H118.978C118.884 33.4621 118.649 34.0421 118.275 34.5582C117.906 35.0696 117.416 35.4768 116.805 35.7798C116.199 36.0781 115.493 36.2273 114.689 36.2273ZM120.429 36V25.0909H122.048V26.7386H122.162C122.36 26.1989 122.72 25.7609 123.241 25.4247C123.762 25.0885 124.349 24.9205 125.002 24.9205C125.126 24.9205 125.279 24.9228 125.464 24.9276C125.649 24.9323 125.788 24.9394 125.883 24.9489V26.6534C125.826 26.6392 125.696 26.6179 125.493 26.5895C125.294 26.5563 125.083 26.5398 124.86 26.5398C124.33 26.5398 123.857 26.651 123.44 26.8736C123.028 27.0914 122.701 27.3944 122.46 27.7827C122.223 28.1662 122.105 28.6042 122.105 29.0966V36H120.429ZM126.87 36V25.0909H128.546V36H126.87ZM127.722 23.2727C127.396 23.2727 127.114 23.1615 126.877 22.9389C126.645 22.7164 126.529 22.4489 126.529 22.1364C126.529 21.8239 126.645 21.5563 126.877 21.3338C127.114 21.1113 127.396 21 127.722 21C128.049 21 128.328 21.1113 128.56 21.3338C128.797 21.5563 128.915 21.8239 128.915 22.1364C128.915 22.4489 128.797 22.7164 128.56 22.9389C128.328 23.1615 128.049 23.2727 127.722 23.2727ZM130.616 40.0909V25.0909H132.235V26.8239H132.434C132.557 26.6345 132.728 26.393 132.946 26.0994C133.168 25.8011 133.485 25.536 133.897 25.304C134.314 25.0672 134.877 24.9489 135.588 24.9489C136.506 24.9489 137.316 25.1785 138.017 25.6378C138.717 26.0971 139.264 26.7481 139.657 27.5909C140.05 28.4337 140.247 29.428 140.247 30.5739C140.247 31.7292 140.05 32.7306 139.657 33.5781C139.264 34.4209 138.72 35.0743 138.024 35.5384C137.328 35.9976 136.525 36.2273 135.616 36.2273C134.915 36.2273 134.354 36.1113 133.933 35.8793C133.511 35.6425 133.187 35.375 132.96 35.0767C132.733 34.7737 132.557 34.5227 132.434 34.3239H132.292V40.0909H130.616ZM132.264 30.5455C132.264 31.3693 132.385 32.0961 132.626 32.7259C132.868 33.3509 133.22 33.8409 133.684 34.196C134.148 34.5464 134.717 34.7216 135.389 34.7216C136.09 34.7216 136.674 34.5369 137.143 34.1676C137.617 33.7936 137.972 33.2917 138.208 32.6619C138.45 32.0275 138.571 31.322 138.571 30.5455C138.571 29.7784 138.452 29.0871 138.216 28.4716C137.984 27.8513 137.631 27.3613 137.157 27.0014C136.689 26.6368 136.099 26.4545 135.389 26.4545C134.707 26.4545 134.134 26.6274 133.67 26.973C133.206 27.3139 132.856 27.7921 132.619 28.4077C132.382 29.0185 132.264 29.7311 132.264 30.5455ZM146.548 25.0909V26.5114H140.895V25.0909H146.548ZM142.542 22.4773H144.218V32.875C144.218 33.3485 144.287 33.7036 144.424 33.9403C144.566 34.1723 144.746 34.3286 144.964 34.4091C145.187 34.4848 145.421 34.5227 145.667 34.5227C145.852 34.5227 146.003 34.5133 146.122 34.4943C146.24 34.4706 146.335 34.4517 146.406 34.4375L146.747 35.9432C146.633 35.9858 146.475 36.0284 146.271 36.071C146.067 36.1184 145.809 36.142 145.497 36.142C145.023 36.142 144.559 36.0402 144.105 35.8366C143.655 35.633 143.281 35.3229 142.983 34.9062C142.689 34.4896 142.542 33.964 142.542 33.3295V22.4773Z" fill="#AAAAAA"/>
</svg>
