<svg width="127" height="49" viewBox="0 0 127 49" fill="none" xmlns="http://www.w3.org/2000/svg">
<g clip-path="url(#clip0_1_95)">
<path d="M22.8953 0.0125052C22.7891 0.0227135 22.4543 0.0574219 22.1521 0.0798802C15.1941 0.708714 8.67708 4.46334 4.54475 10.2351C2.26278 13.4032 0.779345 17.0754 0.2205 20.9396C0.0245 22.2871 0 22.6832 0 24.5084C0 26.3337 0.0245 26.7318 0.2205 28.0773C1.55167 37.279 8.10133 45.0088 16.9805 47.8733C18.571 48.3857 20.2472 48.7348 22.1521 48.9472C22.8953 49.0288 26.1047 49.0288 26.8479 48.9472C30.137 48.5817 32.926 47.7671 35.674 46.3645C36.0967 46.1501 36.1783 46.0909 36.1212 46.0439C34.7769 44.2712 33.4464 42.4881 32.1297 40.6948L28.2118 35.4007L23.3036 28.1344C21.6705 25.704 20.0222 23.2839 18.3587 20.8743C18.3403 20.8681 18.3219 24.096 18.3117 28.0405C18.2974 34.9413 18.2913 35.219 18.2055 35.3823C18.1219 35.573 17.9727 35.7273 17.785 35.8172C17.6318 35.8948 17.4991 35.9091 16.7743 35.9091H15.9454L15.7249 35.7703C15.5885 35.6841 15.4777 35.5628 15.4044 35.4191L15.3023 35.2047L15.3125 25.6007L15.3268 15.9926L15.4758 15.8048C15.5762 15.6874 15.6964 15.5885 15.8311 15.5128C16.0271 15.4169 16.1026 15.4087 16.9336 15.4087C17.9095 15.4087 18.0728 15.4455 18.326 15.7231C18.3975 15.8007 21.0557 19.8065 24.2366 24.6289L33.9019 39.2717L37.781 45.1476L37.9791 45.019C39.846 43.7779 41.5385 42.2927 43.0118 40.6029C46.0991 37.0694 48.1017 32.7203 48.7795 28.0773C48.9755 26.7298 49 26.3337 49 24.5084C49 22.6832 48.9755 22.2871 48.7795 20.9396C47.4483 11.7398 40.8987 4.00805 32.0195 1.14359C30.36 0.615959 28.6512 0.258194 26.9194 0.0757969C26.458 0.0267969 23.2934 -0.0262865 22.8973 0.0145469L22.8953 0.0125052ZM32.926 14.835C33.0398 14.8923 33.1412 14.9717 33.2242 15.0684C33.3073 15.1651 33.3704 15.2773 33.4098 15.3985C33.4466 15.521 33.4568 18.1854 33.4466 24.1879L33.4323 32.7996L31.9153 30.4721L30.3923 28.1446V21.8849C30.3923 17.8363 30.4106 15.5618 30.4392 15.4516C30.4732 15.3241 30.5327 15.2048 30.6141 15.1009C30.6955 14.997 30.7972 14.9107 30.9129 14.8473C31.1109 14.7452 31.1824 14.737 31.9337 14.737C32.6422 14.737 32.7667 14.7472 32.926 14.833V14.835Z" fill="#AAAAAA"/>
</g>
<path d="M74.5923 17.4545V32H72.8878L64.9616 20.5795H64.8196V32H63.0582V17.4545H64.7628L72.7173 28.9034H72.8594V17.4545H74.5923ZM81.4634 32.2273C80.4123 32.2273 79.5056 31.9953 78.7433 31.5312C77.9857 31.0625 77.4009 30.4091 76.989 29.571C76.5818 28.7282 76.3782 27.7481 76.3782 26.6307C76.3782 25.5133 76.5818 24.5284 76.989 23.6761C77.4009 22.8191 77.9738 22.1515 78.7077 21.6733C79.4464 21.1903 80.3081 20.9489 81.293 20.9489C81.8612 20.9489 82.4222 21.0436 82.9762 21.233C83.5302 21.4223 84.0344 21.7301 84.489 22.1562C84.9435 22.5777 85.3058 23.1364 85.5756 23.8324C85.8455 24.5284 85.9805 25.3854 85.9805 26.4034V27.1136H77.5714V25.6648H84.2759C84.2759 25.0492 84.1528 24.5 83.9066 24.017C83.6651 23.5341 83.3195 23.1529 82.8697 22.8736C82.4246 22.5942 81.899 22.4545 81.293 22.4545C80.6254 22.4545 80.0477 22.6203 79.56 22.9517C79.0771 23.2784 78.7054 23.7045 78.445 24.2301C78.1845 24.7557 78.0543 25.3191 78.0543 25.9205V26.8864C78.0543 27.7102 78.1964 28.4086 78.4805 28.9815C78.7693 29.5497 79.1694 29.983 79.6808 30.2812C80.1921 30.5748 80.7863 30.7216 81.4634 30.7216C81.9038 30.7216 82.3015 30.66 82.6566 30.5369C83.0165 30.4091 83.3266 30.2197 83.587 29.9688C83.8474 29.7131 84.0487 29.3958 84.1907 29.017L85.81 29.4716C85.6396 30.0208 85.3531 30.5038 84.9506 30.9205C84.5482 31.3324 84.051 31.6544 83.4592 31.8864C82.8673 32.1136 82.2021 32.2273 81.4634 32.2273ZM88.4872 21.0909L91.1009 25.5511L93.7145 21.0909H95.6463L92.1236 26.5455L95.6463 32H93.7145L91.1009 27.767L88.4872 32H86.5554L90.0213 26.5455L86.5554 21.0909H88.4872ZM101.782 21.0909V22.5114H96.1289V21.0909H101.782ZM97.7766 18.4773H99.4528V28.875C99.4528 29.3485 99.5214 29.7036 99.6587 29.9403C99.8008 30.1723 99.9807 30.3286 100.199 30.4091C100.421 30.4848 100.655 30.5227 100.902 30.5227C101.086 30.5227 101.238 30.5133 101.356 30.4943C101.475 30.4706 101.569 30.4517 101.64 30.4375L101.981 31.9432C101.868 31.9858 101.709 32.0284 101.505 32.071C101.302 32.1184 101.044 32.142 100.731 32.142C100.258 32.142 99.7937 32.0402 99.3391 31.8366C98.8893 31.633 98.5153 31.3229 98.217 30.9062C97.9234 30.4896 97.7766 29.964 97.7766 29.3295V18.4773ZM113.724 17.4545H115.485V27.8523C115.485 28.7803 115.315 29.5687 114.974 30.2173C114.633 30.866 114.153 31.3584 113.532 31.6946C112.912 32.0308 112.181 32.1989 111.338 32.1989C110.542 32.1989 109.834 32.0545 109.214 31.7656C108.594 31.4721 108.106 31.0554 107.751 30.5156C107.396 29.9759 107.218 29.3343 107.218 28.5909H108.951C108.951 29.0028 109.053 29.3627 109.257 29.6705C109.465 29.9735 109.749 30.2102 110.109 30.3807C110.469 30.5511 110.878 30.6364 111.338 30.6364C111.844 30.6364 112.275 30.5298 112.63 30.3168C112.985 30.1037 113.255 29.7912 113.44 29.3793C113.629 28.9626 113.724 28.4536 113.724 27.8523V17.4545ZM125.515 23.5341L124.01 23.9602C123.915 23.7093 123.775 23.4654 123.591 23.2287C123.411 22.9872 123.164 22.7884 122.852 22.6321C122.539 22.4759 122.139 22.3977 121.652 22.3977C120.984 22.3977 120.428 22.5516 119.983 22.8594C119.542 23.1624 119.322 23.5483 119.322 24.017C119.322 24.4337 119.474 24.7628 119.777 25.0043C120.08 25.2457 120.553 25.447 121.197 25.608L122.816 26.0057C123.792 26.2424 124.519 26.6046 124.997 27.0923C125.475 27.5753 125.714 28.1979 125.714 28.9602C125.714 29.5852 125.534 30.1439 125.174 30.6364C124.819 31.1288 124.322 31.517 123.683 31.8011C123.044 32.0852 122.3 32.2273 121.453 32.2273C120.34 32.2273 119.419 31.9858 118.69 31.5028C117.961 31.0199 117.499 30.3144 117.305 29.3864L118.896 28.9886C119.047 29.5758 119.334 30.0161 119.755 30.3097C120.181 30.6032 120.738 30.75 121.424 30.75C122.206 30.75 122.826 30.5843 123.285 30.2528C123.749 29.9167 123.981 29.5142 123.981 29.0455C123.981 28.6667 123.849 28.3494 123.583 28.0938C123.318 27.8333 122.911 27.6392 122.362 27.5114L120.544 27.0852C119.545 26.8485 118.811 26.4815 118.342 25.9844C117.878 25.4825 117.646 24.8551 117.646 24.1023C117.646 23.4867 117.819 22.9422 118.164 22.4688C118.515 21.9953 118.991 21.6236 119.592 21.3537C120.198 21.0838 120.885 20.9489 121.652 20.9489C122.731 20.9489 123.579 21.1856 124.194 21.6591C124.815 22.1326 125.255 22.7576 125.515 23.5341Z" fill="#AAAAAA"/>
<defs>
<clipPath id="clip0_1_95">
<rect width="49" height="49" fill="white"/>
</clipPath>
</defs>
</svg>
