<svg width="146" height="67" viewBox="0 0 146 67" fill="none" xmlns="http://www.w3.org/2000/svg">
<path d="M33.5 28.2238C36.3754 28.2238 38.7204 30.5688 38.7204 33.5C38.7204 36.2917 36.3754 38.6646 33.5 38.6646C30.6246 38.6646 28.2796 36.2917 28.2796 33.5C28.2796 30.5688 30.6246 28.2238 33.5 28.2238ZM20.5746 55.8333C22.3333 56.8942 26.1858 55.275 30.6246 51.0875C29.1729 49.4404 27.7492 47.6538 26.4092 45.7833C24.1595 45.5681 21.923 45.2326 19.7092 44.7784C18.2854 50.7525 18.8158 54.8563 20.5746 55.8333ZM22.5567 39.8092L21.7471 38.3854C21.44 39.195 21.1329 40.0046 20.9375 40.7863C21.6913 40.9538 22.5288 41.0933 23.3942 41.2329L22.5567 39.8092ZM40.8142 37.6875L43.0754 33.5L40.8142 29.3125C39.9767 27.8329 39.0833 26.5208 38.2738 25.2088C36.7663 25.125 35.175 25.125 33.5 25.125C31.825 25.125 30.2338 25.125 28.7263 25.2088C27.9167 26.5208 27.0233 27.8329 26.1858 29.3125L23.9246 33.5L26.1858 37.6875C27.0233 39.1671 27.9167 40.4792 28.7263 41.7913C30.2338 41.875 31.825 41.875 33.5 41.875C35.175 41.875 36.7663 41.875 38.2738 41.7913C39.0833 40.4792 39.9767 39.1671 40.8142 37.6875ZM33.5 18.9275C32.9696 19.5417 32.4113 20.1838 31.8529 20.9375H35.1471C34.5888 20.1838 34.0304 19.5417 33.5 18.9275ZM33.5 48.0725C34.0304 47.4583 34.5888 46.8163 35.1471 46.0625H31.8529C32.4113 46.8163 32.9696 47.4583 33.5 48.0725ZM46.3975 11.1667C44.6667 10.1058 40.8142 11.725 36.3754 15.9125C37.8271 17.5596 39.2508 19.3463 40.5908 21.2167C42.88 21.44 45.1413 21.775 47.2908 22.2217C48.7146 16.2475 48.1842 12.1438 46.3975 11.1667ZM44.4433 27.1908L45.2529 28.6146C45.56 27.805 45.8671 26.9954 46.0625 26.2138C45.3088 26.0463 44.4713 25.9067 43.6058 25.7671L44.4433 27.1908ZM48.4913 7.5096C52.595 9.8546 53.0417 16.0242 51.3108 23.2267C58.4017 25.3204 63.5104 28.7821 63.5104 33.5C63.5104 38.2179 58.4017 41.6796 51.3108 43.7733C53.0417 50.9758 52.595 57.1454 48.4913 59.4904C44.4154 61.8354 38.86 59.1554 33.5 54.0467C28.14 59.1554 22.5846 61.8354 18.4808 59.4904C14.405 57.1454 13.9583 50.9758 15.6892 43.7733C8.59834 41.6796 3.48959 38.2179 3.48959 33.5C3.48959 28.7821 8.59834 25.3204 15.6892 23.2267C13.9583 16.0242 14.405 9.8546 18.4808 7.5096C22.5846 5.1646 28.14 7.8446 33.5 12.9533C38.86 7.8446 44.4154 5.1646 48.4913 7.5096ZM47.6817 33.5C48.6308 35.5938 49.4683 37.6875 50.1663 39.8092C56.0288 38.0504 59.3229 35.5379 59.3229 33.5C59.3229 31.4621 56.0288 28.9496 50.1663 27.1908C49.4683 29.3125 48.6308 31.4063 47.6817 33.5ZM19.3183 33.5C18.3692 31.4063 17.5317 29.3125 16.8338 27.1908C10.9713 28.9496 7.67709 31.4621 7.67709 33.5C7.67709 35.5379 10.9713 38.0504 16.8338 39.8092C17.5317 37.6875 18.3692 35.5938 19.3183 33.5ZM44.4433 39.8092L43.6058 41.2329C44.4713 41.0933 45.3088 40.9538 46.0625 40.7863C45.8671 40.0046 45.56 39.195 45.2529 38.3854L44.4433 39.8092ZM36.3754 51.0875C40.8142 55.275 44.6667 56.8942 46.3975 55.8333C48.1842 54.8563 48.7146 50.7525 47.2908 44.7784C45.1413 45.225 42.88 45.56 40.5908 45.7833C39.2508 47.6538 37.8271 49.4404 36.3754 51.0875ZM22.5567 27.1908L23.3942 25.7671C22.5288 25.9067 21.6913 26.0463 20.9375 26.2138C21.1329 26.9954 21.44 27.805 21.7471 28.6146L22.5567 27.1908ZM30.6246 15.9125C26.1858 11.725 22.3333 10.1058 20.5746 11.1667C18.8158 12.1438 18.2854 16.2475 19.7092 22.2217C21.923 21.7675 24.1595 21.432 26.4092 21.2167C27.7492 19.3463 29.1729 17.5596 30.6246 15.9125Z" fill="#AAAAAA"/>
<path d="M73.7828 42V27.4545H78.6976C79.834 27.4545 80.7667 27.6487 81.4959 28.0369C82.2251 28.4205 82.7649 28.9484 83.1152 29.6207C83.4656 30.2931 83.6408 31.0578 83.6408 31.9148C83.6408 32.7718 83.4656 33.5317 83.1152 34.1946C82.7649 34.8575 82.2275 35.3783 81.503 35.7571C80.7786 36.1312 79.8529 36.3182 78.726 36.3182H74.7488V34.7273H78.6692C79.4457 34.7273 80.0707 34.6136 80.5442 34.3864C81.0224 34.1591 81.3681 33.8371 81.5811 33.4205C81.7989 32.9991 81.9078 32.4972 81.9078 31.9148C81.9078 31.3324 81.7989 30.8234 81.5811 30.3878C81.3633 29.9522 81.0153 29.616 80.5371 29.3793C80.0589 29.1378 79.4268 29.017 78.6408 29.017H75.5442V42H73.7828ZM80.6294 35.4659L84.209 42H82.1635L78.6408 35.4659H80.6294ZM89.8052 42.2273C88.7541 42.2273 87.8474 41.9953 87.085 41.5312C86.3275 41.0625 85.7427 40.4091 85.3308 39.571C84.9236 38.7282 84.72 37.7481 84.72 36.6307C84.72 35.5133 84.9236 34.5284 85.3308 33.6761C85.7427 32.8191 86.3156 32.1515 87.0495 31.6733C87.7882 31.1903 88.6499 30.9489 89.6348 30.9489C90.2029 30.9489 90.764 31.0436 91.318 31.233C91.872 31.4223 92.3762 31.7301 92.8308 32.1562C93.2853 32.5777 93.6476 33.1364 93.9174 33.8324C94.1873 34.5284 94.3223 35.3854 94.3223 36.4034V37.1136H85.9132V35.6648H92.6177C92.6177 35.0492 92.4946 34.5 92.2484 34.017C92.0069 33.5341 91.6613 33.1529 91.2115 32.8736C90.7664 32.5942 90.2408 32.4545 89.6348 32.4545C88.9672 32.4545 88.3895 32.6203 87.9018 32.9517C87.4189 33.2784 87.0472 33.7045 86.7868 34.2301C86.5263 34.7557 86.3961 35.3191 86.3961 35.9205V36.8864C86.3961 37.7102 86.5382 38.4086 86.8223 38.9815C87.1111 39.5497 87.5112 39.983 88.0225 40.2812C88.5339 40.5748 89.1281 40.7216 89.8052 40.7216C90.2456 40.7216 90.6433 40.66 90.9984 40.5369C91.3583 40.4091 91.6684 40.2197 91.9288 39.9688C92.1892 39.7131 92.3904 39.3958 92.5325 39.017L94.1518 39.4716C93.9814 40.0208 93.6949 40.5038 93.2924 40.9205C92.89 41.3324 92.3928 41.6544 91.801 41.8864C91.2091 42.1136 90.5439 42.2273 89.8052 42.2273ZM99.0822 42.2557C98.3909 42.2557 97.7636 42.1255 97.2001 41.8651C96.6367 41.5999 96.1892 41.2188 95.8578 40.7216C95.5263 40.2197 95.3606 39.6136 95.3606 38.9034C95.3606 38.2784 95.4837 37.7718 95.7299 37.3835C95.9761 36.9905 96.3052 36.6828 96.7172 36.4602C97.1291 36.2377 97.5836 36.072 98.0808 35.9631C98.5827 35.8494 99.0869 35.7595 99.5936 35.6932C100.256 35.608 100.794 35.544 101.206 35.5014C101.622 35.4541 101.925 35.3759 102.115 35.267C102.309 35.1581 102.406 34.9687 102.406 34.6989V34.642C102.406 33.9413 102.214 33.3968 101.831 33.0085C101.452 32.6203 100.877 32.4261 100.105 32.4261C99.3047 32.4261 98.6774 32.6013 98.2228 32.9517C97.7683 33.3021 97.4487 33.6761 97.264 34.0739L95.6731 33.5057C95.9572 32.8428 96.336 32.3267 96.8095 31.9574C97.2877 31.5833 97.8085 31.3229 98.372 31.1761C98.9402 31.0246 99.4989 30.9489 100.048 30.9489C100.398 30.9489 100.801 30.9915 101.256 31.0767C101.715 31.1572 102.157 31.3253 102.584 31.581C103.015 31.8366 103.372 32.2225 103.656 32.7386C103.94 33.2547 104.082 33.946 104.082 34.8125V42H102.406V40.5227H102.321C102.207 40.7595 102.018 41.0128 101.753 41.2827C101.488 41.5526 101.135 41.7822 100.694 41.9716C100.254 42.161 99.7167 42.2557 99.0822 42.2557ZM99.3379 40.75C100.001 40.75 100.559 40.6198 101.014 40.3594C101.473 40.099 101.819 39.7628 102.051 39.3509C102.288 38.9389 102.406 38.5057 102.406 38.0511V36.517C102.335 36.6023 102.179 36.6804 101.937 36.7514C101.701 36.8177 101.426 36.8769 101.113 36.929C100.806 36.9763 100.505 37.0189 100.211 37.0568C99.9226 37.09 99.6883 37.1184 99.5083 37.142C99.0727 37.1989 98.6655 37.2912 98.2868 37.419C97.9127 37.5421 97.6097 37.7292 97.3777 37.9801C97.1504 38.2263 97.0368 38.5625 97.0368 38.9886C97.0368 39.571 97.2522 40.0114 97.6831 40.3097C98.1187 40.6032 98.6703 40.75 99.3379 40.75ZM110.573 42.2273C109.551 42.2273 108.67 41.9858 107.931 41.5028C107.193 41.0199 106.624 40.3546 106.227 39.5071C105.829 38.6596 105.63 37.6913 105.63 36.6023C105.63 35.4943 105.834 34.5166 106.241 33.669C106.653 32.8168 107.226 32.1515 107.96 31.6733C108.698 31.1903 109.56 30.9489 110.545 30.9489C111.312 30.9489 112.003 31.0909 112.619 31.375C113.234 31.6591 113.739 32.0568 114.132 32.5682C114.525 33.0795 114.768 33.6761 114.863 34.358H113.187C113.059 33.8608 112.775 33.4205 112.335 33.0369C111.899 32.6487 111.312 32.4545 110.573 32.4545C109.92 32.4545 109.347 32.625 108.855 32.9659C108.367 33.3021 107.986 33.7779 107.711 34.3935C107.441 35.0043 107.306 35.7216 107.306 36.5455C107.306 37.3883 107.439 38.1222 107.704 38.7472C107.974 39.3722 108.353 39.8575 108.84 40.2031C109.333 40.5488 109.91 40.7216 110.573 40.7216C111.009 40.7216 111.404 40.6458 111.759 40.4943C112.115 40.3428 112.415 40.125 112.661 39.8409C112.908 39.5568 113.083 39.2159 113.187 38.8182H114.863C114.768 39.4621 114.534 40.0421 114.16 40.5582C113.791 41.0696 113.301 41.4768 112.69 41.7798C112.084 42.0781 111.378 42.2273 110.573 42.2273ZM121.058 31.0909V32.5114H115.404V31.0909H121.058ZM117.052 28.4773H118.728V38.875C118.728 39.3485 118.797 39.7036 118.934 39.9403C119.076 40.1723 119.256 40.3286 119.474 40.4091C119.696 40.4848 119.931 40.5227 120.177 40.5227C120.362 40.5227 120.513 40.5133 120.632 40.4943C120.75 40.4706 120.845 40.4517 120.916 40.4375L121.257 41.9432C121.143 41.9858 120.984 42.0284 120.781 42.071C120.577 42.1184 120.319 42.142 120.007 42.142C119.533 42.142 119.069 42.0402 118.615 41.8366C118.165 41.633 117.791 41.3229 117.492 40.9062C117.199 40.4896 117.052 39.964 117.052 39.3295V28.4773ZM132.999 27.4545H134.761V37.8523C134.761 38.7803 134.59 39.5687 134.249 40.2173C133.909 40.866 133.428 41.3584 132.808 41.6946C132.187 42.0308 131.456 42.1989 130.613 42.1989C129.818 42.1989 129.11 42.0545 128.49 41.7656C127.869 41.4721 127.382 41.0554 127.026 40.5156C126.671 39.9759 126.494 39.3343 126.494 38.5909H128.227C128.227 39.0028 128.329 39.3627 128.532 39.6705C128.74 39.9735 129.025 40.2102 129.384 40.3807C129.744 40.5511 130.154 40.6364 130.613 40.6364C131.12 40.6364 131.551 40.5298 131.906 40.3168C132.261 40.1037 132.531 39.7912 132.715 39.3793C132.905 38.9626 132.999 38.4536 132.999 37.8523V27.4545ZM144.791 33.5341L143.285 33.9602C143.19 33.7093 143.051 33.4654 142.866 33.2287C142.686 32.9872 142.44 32.7884 142.127 32.6321C141.815 32.4759 141.415 32.3977 140.927 32.3977C140.259 32.3977 139.703 32.5516 139.258 32.8594C138.818 33.1624 138.597 33.5483 138.597 34.017C138.597 34.4337 138.749 34.7628 139.052 35.0043C139.355 35.2457 139.829 35.447 140.472 35.608L142.092 36.0057C143.067 36.2424 143.794 36.6046 144.272 37.0923C144.75 37.5753 144.99 38.1979 144.99 38.9602C144.99 39.5852 144.81 40.1439 144.45 40.6364C144.095 41.1288 143.597 41.517 142.958 41.8011C142.319 42.0852 141.576 42.2273 140.728 42.2273C139.615 42.2273 138.695 41.9858 137.965 41.5028C137.236 41.0199 136.775 40.3144 136.58 39.3864L138.171 38.9886C138.323 39.5758 138.609 40.0161 139.031 40.3097C139.457 40.6032 140.013 40.75 140.7 40.75C141.481 40.75 142.101 40.5843 142.561 40.2528C143.025 39.9167 143.257 39.5142 143.257 39.0455C143.257 38.6667 143.124 38.3494 142.859 38.0938C142.594 37.8333 142.186 37.6392 141.637 37.5114L139.819 37.0852C138.82 36.8485 138.086 36.4815 137.617 35.9844C137.153 35.4825 136.921 34.8551 136.921 34.1023C136.921 33.4867 137.094 32.9422 137.44 32.4688C137.79 31.9953 138.266 31.6236 138.867 31.3537C139.473 31.0838 140.16 30.9489 140.927 30.9489C142.007 30.9489 142.854 31.1856 143.47 31.6591C144.09 32.1326 144.53 32.7576 144.791 33.5341Z" fill="#AAAAAA"/>
</svg>
