<svg width="171" height="61" viewBox="0 0 171 61" fill="none" xmlns="http://www.w3.org/2000/svg">
<path d="M16.1574 22.875C9.45501 24.6033 5.08334 27.5644 5.08334 30.9448C5.08334 36.3001 16.2794 40.6667 30.1188 40.6667C31.9996 40.6667 33.3213 40.5675 35.075 40.4201" stroke="#AAAAAA" stroke-width="2" stroke-linecap="round" stroke-linejoin="round"/>
<path d="M25.0024 40.4125C23.9527 38.8977 22.9538 37.5328 22.0032 35.8375C15.0111 23.3833 13.1379 11.0054 17.8603 8.20197C20.7832 6.43043 25.6048 8.84502 30.5025 13.9309" stroke="#AAAAAA" stroke-width="2" stroke-linecap="round" stroke-linejoin="round"/>
<path d="M16.3404 39.1086C14.5561 45.9406 14.9171 51.0951 17.7637 52.8209C22.2955 55.5659 31.4557 47.8443 38.2063 35.5274C39.1213 33.8245 39.9423 32.1495 40.6667 30.5" stroke="#AAAAAA" stroke-width="2" stroke-linecap="round" stroke-linejoin="round"/>
<path d="M30.5 47.0717C35.4003 52.155 40.2015 54.5696 43.1524 52.7981C47.8545 49.9971 46.0016 37.6192 39.0019 25.1625C38.0259 23.4418 37.027 22.1024 36.0027 20.5875" stroke="#AAAAAA" stroke-width="2" stroke-linecap="round" stroke-linejoin="round"/>
<path d="M44.8859 38.125C51.5247 36.3789 55.9167 33.423 55.9167 30.0527C55.9167 24.6898 44.713 20.3334 30.894 20.3334C28.9954 20.3334 27.6762 20.4071 25.925 20.5545" stroke="#AAAAAA" stroke-width="2" stroke-linecap="round" stroke-linejoin="round"/>
<path d="M20.3333 30.5C21.0577 28.8225 21.8761 27.1755 22.7937 25.4726C29.5215 13.1607 38.6867 5.41883 43.2439 8.18671C46.0652 9.9125 46.4515 15.0645 44.6673 21.8939M31.1608 30.5381H31.1354C31.11 30.8685 30.8304 31.1481 30.4746 31.1481C30.3044 31.1397 30.1439 31.0666 30.0258 30.9438C29.9076 30.821 29.8409 30.6577 29.8392 30.4873C29.8392 30.1315 30.1188 29.8519 30.4492 29.8519H30.4238C30.7542 29.8265 31.0592 30.1315 31.0592 30.4619" stroke="#AAAAAA" stroke-width="2" stroke-linecap="round" stroke-linejoin="round"/>
<path d="M63.0758 39V24.4545H67.9906C69.127 24.4545 70.0597 24.6487 70.7889 25.0369C71.5181 25.4205 72.0578 25.9484 72.4082 26.6207C72.7586 27.2931 72.9338 28.0578 72.9338 28.9148C72.9338 29.7718 72.7586 30.5317 72.4082 31.1946C72.0578 31.8575 71.5204 32.3783 70.796 32.7571C70.0716 33.1312 69.1459 33.3182 68.019 33.3182H64.0417V31.7273H67.9622C68.7387 31.7273 69.3637 31.6136 69.8372 31.3864C70.3154 31.1591 70.661 30.8371 70.8741 30.4205C71.0919 29.9991 71.2008 29.4972 71.2008 28.9148C71.2008 28.3324 71.0919 27.8234 70.8741 27.3878C70.6563 26.9522 70.3083 26.616 69.8301 26.3793C69.3519 26.1378 68.7198 26.017 67.9338 26.017H64.8372V39H63.0758ZM69.9224 32.4659L73.502 39H71.4565L67.9338 32.4659H69.9224ZM79.0982 39.2273C78.0471 39.2273 77.1403 38.9953 76.378 38.5312C75.6204 38.0625 75.0357 37.4091 74.6238 36.571C74.2166 35.7282 74.013 34.7481 74.013 33.6307C74.013 32.5133 74.2166 31.5284 74.6238 30.6761C75.0357 29.8191 75.6086 29.1515 76.3425 28.6733C77.0811 28.1903 77.9429 27.9489 78.9277 27.9489C79.4959 27.9489 80.057 28.0436 80.611 28.233C81.165 28.4223 81.6692 28.7301 82.1238 29.1562C82.5783 29.5777 82.9405 30.1364 83.2104 30.8324C83.4803 31.5284 83.6152 32.3854 83.6152 33.4034V34.1136H75.2061V32.6648H81.9107C81.9107 32.0492 81.7876 31.5 81.5414 31.017C81.2999 30.5341 80.9542 30.1529 80.5044 29.8736C80.0594 29.5942 79.5338 29.4545 78.9277 29.4545C78.2601 29.4545 77.6825 29.6203 77.1948 29.9517C76.7118 30.2784 76.3401 30.7045 76.0797 31.2301C75.8193 31.7557 75.6891 32.3191 75.6891 32.9205V33.8864C75.6891 34.7102 75.8311 35.4086 76.1152 35.9815C76.4041 36.5497 76.8042 36.983 77.3155 37.2812C77.8269 37.5748 78.4211 37.7216 79.0982 37.7216C79.5385 37.7216 79.9363 37.66 80.2914 37.5369C80.6512 37.4091 80.9614 37.2197 81.2218 36.9688C81.4822 36.7131 81.6834 36.3958 81.8255 36.017L83.4448 36.4716C83.2743 37.0208 82.9879 37.5038 82.5854 37.9205C82.1829 38.3324 81.6858 38.6544 81.0939 38.8864C80.5021 39.1136 79.8368 39.2273 79.0982 39.2273ZM88.3752 39.2557C87.6839 39.2557 87.0565 39.1255 86.4931 38.8651C85.9296 38.5999 85.4822 38.2188 85.1507 37.7216C84.8193 37.2197 84.6536 36.6136 84.6536 35.9034C84.6536 35.2784 84.7767 34.7718 85.0229 34.3835C85.2691 33.9905 85.5982 33.6828 86.0101 33.4602C86.4221 33.2377 86.8766 33.072 87.3738 32.9631C87.8757 32.8494 88.3799 32.7595 88.8865 32.6932C89.5494 32.608 90.0868 32.544 90.4988 32.5014C90.9154 32.4541 91.2185 32.3759 91.4078 32.267C91.602 32.1581 91.699 31.9687 91.699 31.6989V31.642C91.699 30.9413 91.5073 30.3968 91.1238 30.0085C90.745 29.6203 90.1697 29.4261 89.3979 29.4261C88.5977 29.4261 87.9703 29.6013 87.5158 29.9517C87.0613 30.3021 86.7417 30.6761 86.557 31.0739L84.9661 30.5057C85.2502 29.8428 85.629 29.3267 86.1025 28.9574C86.5807 28.5833 87.1015 28.3229 87.665 28.1761C88.2331 28.0246 88.7918 27.9489 89.3411 27.9489C89.6915 27.9489 90.0939 27.9915 90.5485 28.0767C91.0078 28.1572 91.4505 28.3253 91.8766 28.581C92.3075 28.8366 92.665 29.2225 92.949 29.7386C93.2331 30.2547 93.3752 30.946 93.3752 31.8125V39H91.699V37.5227H91.6138C91.5002 37.7595 91.3108 38.0128 91.0456 38.2827C90.7805 38.5526 90.4277 38.7822 89.9874 38.9716C89.5471 39.161 89.0096 39.2557 88.3752 39.2557ZM88.6309 37.75C89.2937 37.75 89.8525 37.6198 90.307 37.3594C90.7663 37.099 91.1119 36.7628 91.3439 36.3509C91.5807 35.9389 91.699 35.5057 91.699 35.0511V33.517C91.628 33.6023 91.4718 33.6804 91.2303 33.7514C90.9935 33.8177 90.7189 33.8769 90.4064 33.929C90.0987 33.9763 89.798 34.0189 89.5044 34.0568C89.2156 34.09 88.9812 34.1184 88.8013 34.142C88.3657 34.1989 87.9585 34.2912 87.5797 34.419C87.2057 34.5421 86.9026 34.7292 86.6706 34.9801C86.4434 35.2263 86.3297 35.5625 86.3297 35.9886C86.3297 36.571 86.5452 37.0114 86.976 37.3097C87.4116 37.6032 87.9632 37.75 88.6309 37.75ZM99.8663 39.2273C98.8436 39.2273 97.9629 38.9858 97.2243 38.5028C96.4856 38.0199 95.9174 37.3546 95.5197 36.5071C95.122 35.6596 94.9231 34.6913 94.9231 33.6023C94.9231 32.4943 95.1267 31.5166 95.5339 30.669C95.9458 29.8168 96.5188 29.1515 97.2527 28.6733C97.9913 28.1903 98.853 27.9489 99.8379 27.9489C100.605 27.9489 101.296 28.0909 101.912 28.375C102.527 28.6591 103.032 29.0568 103.425 29.5682C103.818 30.0795 104.061 30.6761 104.156 31.358H102.48C102.352 30.8608 102.068 30.4205 101.628 30.0369C101.192 29.6487 100.605 29.4545 99.8663 29.4545C99.2129 29.4545 98.64 29.625 98.1475 29.9659C97.6599 30.3021 97.2787 30.7779 97.0041 31.3935C96.7342 32.0043 96.5993 32.7216 96.5993 33.5455C96.5993 34.3883 96.7318 35.1222 96.997 35.7472C97.2669 36.3722 97.6457 36.8575 98.1333 37.2031C98.6258 37.5488 99.2034 37.7216 99.8663 37.7216C100.302 37.7216 100.697 37.6458 101.052 37.4943C101.407 37.3428 101.708 37.125 101.954 36.8409C102.201 36.5568 102.376 36.2159 102.48 35.8182H104.156C104.061 36.4621 103.827 37.0421 103.453 37.5582C103.084 38.0696 102.594 38.4768 101.983 38.7798C101.377 39.0781 100.671 39.2273 99.8663 39.2273ZM110.351 28.0909V29.5114H104.697V28.0909H110.351ZM106.345 25.4773H108.021V35.875C108.021 36.3485 108.09 36.7036 108.227 36.9403C108.369 37.1723 108.549 37.3286 108.767 37.4091C108.989 37.4848 109.224 37.5227 109.47 37.5227C109.655 37.5227 109.806 37.5133 109.925 37.4943C110.043 37.4706 110.138 37.4517 110.209 37.4375L110.55 38.9432C110.436 38.9858 110.277 39.0284 110.074 39.071C109.87 39.1184 109.612 39.142 109.3 39.142C108.826 39.142 108.362 39.0402 107.907 38.8366C107.458 38.633 107.084 38.3229 106.785 37.9062C106.492 37.4896 106.345 36.964 106.345 36.3295V25.4773ZM128.258 24.4545V39H126.554L118.628 27.5795H118.486V39H116.724V24.4545H118.429L126.383 35.9034H126.525V24.4545H128.258ZM133.766 39.2557C133.075 39.2557 132.447 39.1255 131.884 38.8651C131.32 38.5999 130.873 38.2188 130.541 37.7216C130.21 37.2197 130.044 36.6136 130.044 35.9034C130.044 35.2784 130.167 34.7718 130.414 34.3835C130.66 33.9905 130.989 33.6828 131.401 33.4602C131.813 33.2377 132.267 33.072 132.764 32.9631C133.266 32.8494 133.771 32.7595 134.277 32.6932C134.94 32.608 135.477 32.544 135.889 32.5014C136.306 32.4541 136.609 32.3759 136.798 32.267C136.993 32.1581 137.09 31.9687 137.09 31.6989V31.642C137.09 30.9413 136.898 30.3968 136.514 30.0085C136.136 29.6203 135.56 29.4261 134.789 29.4261C133.988 29.4261 133.361 29.6013 132.906 29.9517C132.452 30.3021 132.132 30.6761 131.948 31.0739L130.357 30.5057C130.641 29.8428 131.02 29.3267 131.493 28.9574C131.971 28.5833 132.492 28.3229 133.056 28.1761C133.624 28.0246 134.182 27.9489 134.732 27.9489C135.082 27.9489 135.485 27.9915 135.939 28.0767C136.398 28.1572 136.841 28.3253 137.267 28.581C137.698 28.8366 138.056 29.2225 138.34 29.7386C138.624 30.2547 138.766 30.946 138.766 31.8125V39H137.09V37.5227H137.004C136.891 37.7595 136.701 38.0128 136.436 38.2827C136.171 38.5526 135.818 38.7822 135.378 38.9716C134.938 39.161 134.4 39.2557 133.766 39.2557ZM134.021 37.75C134.684 37.75 135.243 37.6198 135.698 37.3594C136.157 37.099 136.503 36.7628 136.735 36.3509C136.971 35.9389 137.09 35.5057 137.09 35.0511V33.517C137.019 33.6023 136.862 33.6804 136.621 33.7514C136.384 33.8177 136.11 33.8769 135.797 33.929C135.489 33.9763 135.189 34.0189 134.895 34.0568C134.606 34.09 134.372 34.1184 134.192 34.142C133.756 34.1989 133.349 34.2912 132.97 34.419C132.596 34.5421 132.293 34.7292 132.061 34.9801C131.834 35.2263 131.72 35.5625 131.72 35.9886C131.72 36.571 131.936 37.0114 132.367 37.3097C132.802 37.6032 133.354 37.75 134.021 37.75ZM145.569 28.0909V29.5114H139.916V28.0909H145.569ZM141.564 25.4773H143.24V35.875C143.24 36.3485 143.309 36.7036 143.446 36.9403C143.588 37.1723 143.768 37.3286 143.986 37.4091C144.208 37.4848 144.443 37.5227 144.689 37.5227C144.873 37.5227 145.025 37.5133 145.143 37.4943C145.262 37.4706 145.356 37.4517 145.427 37.4375L145.768 38.9432C145.655 38.9858 145.496 39.0284 145.292 39.071C145.089 39.1184 144.831 39.142 144.518 39.142C144.045 39.142 143.581 39.0402 143.126 38.8366C142.676 38.633 142.302 38.3229 142.004 37.9062C141.711 37.4896 141.564 36.964 141.564 36.3295V25.4773ZM147.091 39V28.0909H148.767V39H147.091ZM147.943 26.2727C147.616 26.2727 147.335 26.1615 147.098 25.9389C146.866 25.7164 146.75 25.4489 146.75 25.1364C146.75 24.8239 146.866 24.5563 147.098 24.3338C147.335 24.1113 147.616 24 147.943 24C148.27 24 148.549 24.1113 148.781 24.3338C149.018 24.5563 149.136 24.8239 149.136 25.1364C149.136 25.4489 149.018 25.7164 148.781 25.9389C148.549 26.1615 148.27 26.2727 147.943 26.2727ZM159.757 28.0909L155.723 39H154.019L149.985 28.0909H151.803L154.814 36.7841H154.928L157.939 28.0909H159.757ZM165.153 39.2273C164.102 39.2273 163.195 38.9953 162.433 38.5312C161.675 38.0625 161.09 37.4091 160.678 36.571C160.271 35.7282 160.068 34.7481 160.068 33.6307C160.068 32.5133 160.271 31.5284 160.678 30.6761C161.09 29.8191 161.663 29.1515 162.397 28.6733C163.136 28.1903 163.998 27.9489 164.982 27.9489C165.551 27.9489 166.112 28.0436 166.666 28.233C167.22 28.4223 167.724 28.7301 168.178 29.1562C168.633 29.5777 168.995 30.1364 169.265 30.8324C169.535 31.5284 169.67 32.3854 169.67 33.4034V34.1136H161.261V32.6648H167.965C167.965 32.0492 167.842 31.5 167.596 31.017C167.355 30.5341 167.009 30.1529 166.559 29.8736C166.114 29.5942 165.588 29.4545 164.982 29.4545C164.315 29.4545 163.737 29.6203 163.249 29.9517C162.767 30.2784 162.395 30.7045 162.134 31.2301C161.874 31.7557 161.744 32.3191 161.744 32.9205V33.8864C161.744 34.7102 161.886 35.4086 162.17 35.9815C162.459 36.5497 162.859 36.983 163.37 37.2812C163.882 37.5748 164.476 37.7216 165.153 37.7216C165.593 37.7216 165.991 37.66 166.346 37.5369C166.706 37.4091 167.016 37.2197 167.276 36.9688C167.537 36.7131 167.738 36.3958 167.88 36.017L169.499 36.4716C169.329 37.0208 169.043 37.5038 168.64 37.9205C168.238 38.3324 167.74 38.6544 167.149 38.8864C166.557 39.1136 165.892 39.2273 165.153 39.2273Z" fill="#AAAAAA"/>
</svg>
