<svg width="179" height="69" viewBox="0 0 179 69" fill="none" xmlns="http://www.w3.org/2000/svg">
<path d="M53.1875 27.3412C51.0314 26.5987 49.1282 25.2634 47.6963 23.4887C46.118 21.5114 44.1084 19.9213 41.8212 18.8399C39.534 17.7586 37.0297 17.2148 34.5 17.25C31.0971 17.009 27.7282 18.0586 25.0643 20.1897C22.4004 22.3208 20.6369 25.3771 20.125 28.75C21.1332 27.0631 22.6506 25.7395 24.4588 24.9697C26.267 24.1999 28.2728 24.0237 30.1875 24.4662C32.34 25.2304 34.24 26.5734 35.6787 28.3475C37.2656 30.309 39.2791 31.8827 41.5658 32.9489C43.8525 34.015 46.3523 34.5455 48.875 34.5C52.2779 34.741 55.6468 33.6914 58.3107 31.5603C60.9746 29.4292 62.7381 26.3728 63.25 23C62.2601 24.7071 60.7476 26.0507 58.9357 26.8324C57.1238 27.6141 55.1085 27.7925 53.1875 27.3412ZM15.8125 41.6587C17.9686 42.4013 19.8718 43.7365 21.3037 45.5112C22.882 47.4886 24.8916 49.0787 27.1788 50.16C29.466 51.2414 31.9703 51.7852 34.5 51.75C37.9029 51.991 41.2718 50.9414 43.9357 48.8103C46.5996 46.6792 48.3631 43.6228 48.875 40.25C47.8668 41.9369 46.3494 43.2605 44.5412 44.0303C42.733 44.8 40.7272 44.9763 38.8125 44.5337C36.66 43.7695 34.76 42.4266 33.3213 40.6525C31.7301 38.6958 29.7159 37.1255 27.4301 36.0599C25.1444 34.9942 22.6467 34.4608 20.125 34.5C16.7221 34.259 13.3532 35.3086 10.6893 37.4397C8.02536 39.5708 6.26187 42.6271 5.75 46C6.73988 44.2929 8.25242 42.9493 10.0643 42.1676C11.8762 41.3859 13.8915 41.2075 15.8125 41.6587Z" fill="#AAAAAA"/>
<path d="M72.3155 31.017V29.4545H83.2246V31.017H78.6507V44H76.8894V31.017H72.3155ZM86.4416 44.2557C85.7503 44.2557 85.1229 44.1255 84.5595 43.8651C83.996 43.5999 83.5486 43.2188 83.2172 42.7216C82.8857 42.2197 82.72 41.6136 82.72 40.9034C82.72 40.2784 82.8431 39.7718 83.0893 39.3835C83.3355 38.9905 83.6646 38.6828 84.0765 38.4602C84.4885 38.2377 84.943 38.072 85.4402 37.9631C85.9421 37.8494 86.4463 37.7595 86.9529 37.6932C87.6158 37.608 88.1532 37.544 88.5652 37.5014C88.9818 37.4541 89.2849 37.3759 89.4743 37.267C89.6684 37.1581 89.7654 36.9687 89.7654 36.6989V36.642C89.7654 35.9413 89.5737 35.3968 89.1902 35.0085C88.8114 34.6203 88.2361 34.4261 87.4643 34.4261C86.6641 34.4261 86.0368 34.6013 85.5822 34.9517C85.1277 35.3021 84.8081 35.6761 84.6234 36.0739L83.0325 35.5057C83.3166 34.8428 83.6954 34.3267 84.1689 33.9574C84.6471 33.5833 85.1679 33.3229 85.7314 33.1761C86.2995 33.0246 86.8583 32.9489 87.4075 32.9489C87.7579 32.9489 88.1603 32.9915 88.6149 33.0767C89.0742 33.1572 89.5169 33.3253 89.943 33.581C90.3739 33.8366 90.7314 34.2225 91.0154 34.7386C91.2995 35.2547 91.4416 35.946 91.4416 36.8125V44H89.7654V42.5227H89.6802C89.5666 42.7595 89.3772 43.0128 89.112 43.2827C88.8469 43.5526 88.4941 43.7822 88.0538 43.9716C87.6135 44.161 87.0761 44.2557 86.4416 44.2557ZM86.6973 42.75C87.3601 42.75 87.9189 42.6198 88.3734 42.3594C88.8327 42.099 89.1783 41.7628 89.4103 41.3509C89.6471 40.9389 89.7654 40.5057 89.7654 40.0511V38.517C89.6944 38.6023 89.5382 38.6804 89.2967 38.7514C89.06 38.8177 88.7853 38.8769 88.4728 38.929C88.1651 38.9763 87.8644 39.0189 87.5708 39.0568C87.282 39.09 87.0476 39.1184 86.8677 39.142C86.4321 39.1989 86.0249 39.2912 85.6461 39.419C85.2721 39.5421 84.969 39.7292 84.737 39.9801C84.5098 40.2263 84.3961 40.5625 84.3961 40.9886C84.3961 41.571 84.6116 42.0114 85.0424 42.3097C85.478 42.6032 86.0297 42.75 86.6973 42.75ZM93.5009 44V33.0909H95.177V44H93.5009ZM94.3532 31.2727C94.0265 31.2727 93.7447 31.1615 93.508 30.9389C93.276 30.7164 93.16 30.4489 93.16 30.1364C93.16 29.8239 93.276 29.5563 93.508 29.3338C93.7447 29.1113 94.0265 29 94.3532 29C94.6799 29 94.9592 29.1113 95.1912 29.3338C95.428 29.5563 95.5463 29.8239 95.5463 30.1364C95.5463 30.4489 95.428 30.7164 95.1912 30.9389C94.9592 31.1615 94.6799 31.2727 94.3532 31.2727ZM98.9231 29.4545V44H97.247V29.4545H98.9231ZM103.465 44L100.141 33.0909H101.902L104.26 41.4432H104.374L106.703 33.0909H108.493L110.794 41.4148H110.908L113.266 33.0909H115.027L111.703 44H110.056L107.669 35.6193H107.499L105.112 44H103.465ZM116.243 44V33.0909H117.919V44H116.243ZM117.095 31.2727C116.769 31.2727 116.487 31.1615 116.25 30.9389C116.018 30.7164 115.902 30.4489 115.902 30.1364C115.902 29.8239 116.018 29.5563 116.25 29.3338C116.487 29.1113 116.769 29 117.095 29C117.422 29 117.701 29.1113 117.933 29.3338C118.17 29.5563 118.289 29.8239 118.289 30.1364C118.289 30.4489 118.17 30.7164 117.933 30.9389C117.701 31.1615 117.422 31.2727 117.095 31.2727ZM121.665 37.4375V44H119.989V33.0909H121.608V34.7955H121.751C122.006 34.2415 122.394 33.7964 122.915 33.4602C123.436 33.1193 124.108 32.9489 124.932 32.9489C125.671 32.9489 126.317 33.1004 126.871 33.4034C127.425 33.7017 127.856 34.1562 128.164 34.767C128.472 35.3731 128.626 36.1402 128.626 37.0682V44H126.949V37.1818C126.949 36.3248 126.727 35.6572 126.282 35.179C125.837 34.696 125.226 34.4545 124.449 34.4545C123.914 34.4545 123.436 34.5705 123.015 34.8026C122.598 35.0346 122.269 35.3731 122.028 35.8182C121.786 36.2633 121.665 36.803 121.665 37.4375ZM134.808 44.2273C133.899 44.2273 133.096 43.9976 132.4 43.5384C131.704 43.0743 131.16 42.4209 130.767 41.5781C130.374 40.7306 130.177 39.7292 130.177 38.5739C130.177 37.428 130.374 36.4337 130.767 35.5909C131.16 34.7481 131.706 34.0971 132.407 33.6378C133.108 33.1785 133.918 32.9489 134.836 32.9489C135.546 32.9489 136.107 33.0672 136.519 33.304C136.936 33.536 137.253 33.8011 137.471 34.0994C137.694 34.393 137.866 34.6345 137.99 34.8239H138.132V29.4545H139.808V44H138.188V42.3239H137.99C137.866 42.5227 137.691 42.7737 137.464 43.0767C137.237 43.375 136.912 43.6425 136.491 43.8793C136.07 44.1113 135.508 44.2273 134.808 44.2273ZM135.035 42.7216C135.707 42.7216 136.276 42.5464 136.74 42.196C137.204 41.8409 137.556 41.3509 137.798 40.7259C138.039 40.0961 138.16 39.3693 138.16 38.5455C138.16 37.7311 138.042 37.0185 137.805 36.4077C137.568 35.7921 137.218 35.3139 136.754 34.973C136.29 34.6274 135.717 34.4545 135.035 34.4545C134.325 34.4545 133.733 34.6368 133.259 35.0014C132.791 35.3613 132.438 35.8513 132.201 36.4716C131.969 37.0871 131.853 37.7784 131.853 38.5455C131.853 39.322 131.972 40.0275 132.208 40.6619C132.45 41.2917 132.805 41.7936 133.274 42.1676C133.747 42.5369 134.334 42.7216 135.035 42.7216ZM158.667 34H156.906C156.802 33.4934 156.619 33.0483 156.359 32.6648C156.103 32.2812 155.791 31.9593 155.421 31.6989C155.057 31.4337 154.652 31.2348 154.207 31.1023C153.762 30.9697 153.298 30.9034 152.815 30.9034C151.934 30.9034 151.136 31.1259 150.421 31.571C149.711 32.0161 149.145 32.6719 148.724 33.5384C148.307 34.4048 148.099 35.4678 148.099 36.7273C148.099 37.9867 148.307 39.0497 148.724 39.9162C149.145 40.7827 149.711 41.4384 150.421 41.8835C151.136 42.3286 151.934 42.5511 152.815 42.5511C153.298 42.5511 153.762 42.4848 154.207 42.3523C154.652 42.2197 155.057 42.0232 155.421 41.7628C155.791 41.4976 156.103 41.1733 156.359 40.7898C156.619 40.4015 156.802 39.9564 156.906 39.4545H158.667C158.535 40.1979 158.293 40.8632 157.943 41.4503C157.592 42.0374 157.157 42.5369 156.636 42.9489C156.115 43.3561 155.53 43.6662 154.882 43.8793C154.238 44.0923 153.549 44.1989 152.815 44.1989C151.574 44.1989 150.471 43.8958 149.505 43.2898C148.539 42.6837 147.779 41.822 147.225 40.7045C146.671 39.5871 146.394 38.2614 146.394 36.7273C146.394 35.1932 146.671 33.8674 147.225 32.75C147.779 31.6326 148.539 30.7708 149.505 30.1648C150.471 29.5587 151.574 29.2557 152.815 29.2557C153.549 29.2557 154.238 29.3622 154.882 29.5753C155.53 29.7884 156.115 30.1009 156.636 30.5128C157.157 30.92 157.592 31.4171 157.943 32.0043C158.293 32.5866 158.535 33.2519 158.667 34ZM168.013 35.5341L166.508 35.9602C166.413 35.7093 166.273 35.4654 166.089 35.2287C165.909 34.9872 165.662 34.7884 165.35 34.6321C165.037 34.4759 164.637 34.3977 164.15 34.3977C163.482 34.3977 162.926 34.5516 162.481 34.8594C162.04 35.1624 161.82 35.5483 161.82 36.017C161.82 36.4337 161.972 36.7628 162.275 37.0043C162.578 37.2457 163.051 37.447 163.695 37.608L165.314 38.0057C166.29 38.2424 167.017 38.6046 167.495 39.0923C167.973 39.5753 168.212 40.1979 168.212 40.9602C168.212 41.5852 168.032 42.1439 167.672 42.6364C167.317 43.1288 166.82 43.517 166.181 43.8011C165.542 44.0852 164.798 44.2273 163.951 44.2273C162.838 44.2273 161.917 43.9858 161.188 43.5028C160.459 43.0199 159.997 42.3144 159.803 41.3864L161.394 40.9886C161.546 41.5758 161.832 42.0161 162.253 42.3097C162.68 42.6032 163.236 42.75 163.922 42.75C164.704 42.75 165.324 42.5843 165.783 42.2528C166.247 41.9167 166.479 41.5142 166.479 41.0455C166.479 40.6667 166.347 40.3494 166.081 40.0938C165.816 39.8333 165.409 39.6392 164.86 39.5114L163.042 39.0852C162.043 38.8485 161.309 38.4815 160.84 37.9844C160.376 37.4825 160.144 36.8551 160.144 36.1023C160.144 35.4867 160.317 34.9422 160.662 34.4688C161.013 33.9953 161.489 33.6236 162.09 33.3537C162.696 33.0838 163.383 32.9489 164.15 32.9489C165.229 32.9489 166.077 33.1856 166.692 33.6591C167.313 34.1326 167.753 34.7576 168.013 35.5341ZM177.463 35.5341L175.957 35.9602C175.862 35.7093 175.722 35.4654 175.538 35.2287C175.358 34.9872 175.112 34.7884 174.799 34.6321C174.487 34.4759 174.087 34.3977 173.599 34.3977C172.931 34.3977 172.375 34.5516 171.93 34.8594C171.49 35.1624 171.269 35.5483 171.269 36.017C171.269 36.4337 171.421 36.7628 171.724 37.0043C172.027 37.2457 172.5 37.447 173.144 37.608L174.764 38.0057C175.739 38.2424 176.466 38.6046 176.944 39.0923C177.422 39.5753 177.661 40.1979 177.661 40.9602C177.661 41.5852 177.481 42.1439 177.122 42.6364C176.767 43.1288 176.269 43.517 175.63 43.8011C174.991 44.0852 174.248 44.2273 173.4 44.2273C172.287 44.2273 171.366 43.9858 170.637 43.5028C169.908 43.0199 169.446 42.3144 169.252 41.3864L170.843 40.9886C170.995 41.5758 171.281 42.0161 171.703 42.3097C172.129 42.6032 172.685 42.75 173.372 42.75C174.153 42.75 174.773 42.5843 175.232 42.2528C175.696 41.9167 175.928 41.5142 175.928 41.0455C175.928 40.6667 175.796 40.3494 175.531 40.0938C175.266 39.8333 174.858 39.6392 174.309 39.5114L172.491 39.0852C171.492 38.8485 170.758 38.4815 170.289 37.9844C169.825 37.4825 169.593 36.8551 169.593 36.1023C169.593 35.4867 169.766 34.9422 170.112 34.4688C170.462 33.9953 170.938 33.6236 171.539 33.3537C172.145 33.0838 172.832 32.9489 173.599 32.9489C174.678 32.9489 175.526 33.1856 176.142 33.6591C176.762 34.1326 177.202 34.7576 177.463 35.5341Z" fill="#AAAAAA"/>
</svg>
