<svg width="147" height="60" viewBox="0 0 147 60" fill="none" xmlns="http://www.w3.org/2000/svg">
<path d="M7.5 7.5H52.5V52.5H7.5V7.5ZM34.275 44.65C35.525 47.1 38.05 48.975 42 48.975C46 48.975 49 46.9 49 43.075C49 39.55 46.975 37.975 43.375 36.425L42.325 35.975C40.5 35.2 39.725 34.675 39.725 33.425C39.725 32.4 40.5 31.6 41.75 31.6C42.95 31.6 43.75 32.125 44.475 33.425L47.75 31.25C46.375 28.85 44.425 27.925 41.75 27.925C37.975 27.925 35.55 30.325 35.55 33.5C35.55 36.95 37.575 38.575 40.625 39.875L41.675 40.325C43.625 41.175 44.775 41.7 44.775 43.15C44.775 44.35 43.65 45.225 41.9 45.225C39.825 45.225 38.625 44.15 37.725 42.65L34.275 44.65ZM32.5 28.125H20V31.875H23.75V50H28.125V31.875H32.5V28.125Z" fill="#AAAAAA"/>
<path d="M57.0636 24.017V22.4545H67.9727V24.017H63.3988V37H61.6374V24.017H57.0636ZM69.2933 41.0909C69.0092 41.0909 68.7559 41.0672 68.5334 41.0199C68.3108 40.9773 68.157 40.9347 68.0717 40.892L68.4979 39.4148C68.9051 39.5189 69.2649 39.5568 69.5774 39.5284C69.8899 39.5 70.1669 39.3603 70.4084 39.1094C70.6546 38.8632 70.8795 38.4631 71.0831 37.9091L71.3956 37.0568L67.3615 26.0909H69.1797L72.1911 34.7841H72.3047L75.3161 26.0909H77.1342L72.5036 38.5909C72.2952 39.1544 72.0372 39.6207 71.7294 39.9901C71.4216 40.3641 71.0642 40.6411 70.657 40.821C70.2545 41.0009 69.8 41.0909 69.2933 41.0909ZM78.3466 41.0909V26.0909H79.9659V27.8239H80.1648C80.2879 27.6345 80.4583 27.393 80.6761 27.0994C80.8987 26.8011 81.2159 26.536 81.6278 26.304C82.0445 26.0672 82.608 25.9489 83.3182 25.9489C84.2367 25.9489 85.0464 26.1785 85.7472 26.6378C86.4479 27.0971 86.9948 27.7481 87.3878 28.5909C87.7808 29.4337 87.9773 30.428 87.9773 31.5739C87.9773 32.7292 87.7808 33.7306 87.3878 34.5781C86.9948 35.4209 86.4503 36.0743 85.7543 36.5384C85.0582 36.9976 84.2557 37.2273 83.3466 37.2273C82.6458 37.2273 82.0848 37.1113 81.6634 36.8793C81.242 36.6425 80.9176 36.375 80.6903 36.0767C80.4631 35.7737 80.2879 35.5227 80.1648 35.3239H80.0227V41.0909H78.3466ZM79.9943 31.5455C79.9943 32.3693 80.1151 33.0961 80.3565 33.7259C80.598 34.3509 80.9508 34.8409 81.4148 35.196C81.8788 35.5464 82.447 35.7216 83.1193 35.7216C83.8201 35.7216 84.4048 35.5369 84.8736 35.1676C85.3471 34.7936 85.7022 34.2917 85.9389 33.6619C86.1804 33.0275 86.3011 32.322 86.3011 31.5455C86.3011 30.7784 86.1828 30.0871 85.946 29.4716C85.714 28.8513 85.3613 28.3613 84.8878 28.0014C84.419 27.6368 83.8295 27.4545 83.1193 27.4545C82.4375 27.4545 81.8646 27.6274 81.4006 27.973C80.9366 28.3139 80.5862 28.7921 80.3494 29.4077C80.1127 30.0185 79.9943 30.7311 79.9943 31.5455ZM94.108 37.2273C93.0568 37.2273 92.1501 36.9953 91.3878 36.5312C90.6302 36.0625 90.0455 35.4091 89.6335 34.571C89.2263 33.7282 89.0227 32.7481 89.0227 31.6307C89.0227 30.5133 89.2263 29.5284 89.6335 28.6761C90.0455 27.8191 90.6184 27.1515 91.3523 26.6733C92.0909 26.1903 92.9527 25.9489 93.9375 25.9489C94.5057 25.9489 95.0668 26.0436 95.6207 26.233C96.1747 26.4223 96.679 26.7301 97.1335 27.1562C97.5881 27.5777 97.9503 28.1364 98.2202 28.8324C98.4901 29.5284 98.625 30.3854 98.625 31.4034V32.1136H90.2159V30.6648H96.9205C96.9205 30.0492 96.7973 29.5 96.5511 29.017C96.3097 28.5341 95.964 28.1529 95.5142 27.8736C95.0691 27.5942 94.5436 27.4545 93.9375 27.4545C93.2699 27.4545 92.6922 27.6203 92.2045 27.9517C91.7216 28.2784 91.3499 28.7045 91.0895 29.2301C90.8291 29.7557 90.6989 30.3191 90.6989 30.9205V31.8864C90.6989 32.7102 90.8409 33.4086 91.125 33.9815C91.4138 34.5497 91.8139 34.983 92.3253 35.2812C92.8366 35.5748 93.4309 35.7216 94.108 35.7216C94.5483 35.7216 94.946 35.66 95.3011 35.5369C95.661 35.4091 95.9711 35.2197 96.2315 34.9688C96.492 34.7131 96.6932 34.3958 96.8352 34.017L98.4545 34.4716C98.2841 35.0208 97.9976 35.5038 97.5952 35.9205C97.1927 36.3324 96.6955 36.6544 96.1037 36.8864C95.5118 37.1136 94.8466 37.2273 94.108 37.2273ZM107.902 28.5341L106.396 28.9602C106.302 28.7093 106.162 28.4654 105.977 28.2287C105.797 27.9872 105.551 27.7884 105.239 27.6321C104.926 27.4759 104.526 27.3977 104.038 27.3977C103.371 27.3977 102.814 27.5516 102.369 27.8594C101.929 28.1624 101.709 28.5483 101.709 29.017C101.709 29.4337 101.86 29.7628 102.163 30.0043C102.466 30.2457 102.94 30.447 103.584 30.608L105.203 31.0057C106.179 31.2424 106.905 31.6046 107.384 32.0923C107.862 32.5753 108.101 33.1979 108.101 33.9602C108.101 34.5852 107.921 35.1439 107.561 35.6364C107.206 36.1288 106.709 36.517 106.07 36.8011C105.43 37.0852 104.687 37.2273 103.839 37.2273C102.727 37.2273 101.806 36.9858 101.077 36.5028C100.348 36.0199 99.8859 35.3144 99.6918 34.3864L101.283 33.9886C101.434 34.5758 101.721 35.0161 102.142 35.3097C102.568 35.6032 103.125 35.75 103.811 35.75C104.592 35.75 105.213 35.5843 105.672 35.2528C106.136 34.9167 106.368 34.5142 106.368 34.0455C106.368 33.6667 106.235 33.3494 105.97 33.0938C105.705 32.8333 105.298 32.6392 104.749 32.5114L102.93 32.0852C101.931 31.8485 101.197 31.4815 100.729 30.9844C100.265 30.4825 100.033 29.8551 100.033 29.1023C100.033 28.4867 100.205 27.9422 100.551 27.4688C100.902 26.9953 101.377 26.6236 101.979 26.3537C102.585 26.0838 103.271 25.9489 104.038 25.9489C105.118 25.9489 105.965 26.1856 106.581 26.6591C107.201 27.1326 107.642 27.7576 107.902 28.5341ZM114.056 37.2273C113.033 37.2273 112.152 36.9858 111.414 36.5028C110.675 36.0199 110.107 35.3546 109.709 34.5071C109.311 33.6596 109.113 32.6913 109.113 31.6023C109.113 30.4943 109.316 29.5166 109.723 28.669C110.135 27.8168 110.708 27.1515 111.442 26.6733C112.181 26.1903 113.042 25.9489 114.027 25.9489C114.794 25.9489 115.486 26.0909 116.101 26.375C116.717 26.6591 117.221 27.0568 117.614 27.5682C118.007 28.0795 118.251 28.6761 118.346 29.358H116.669C116.542 28.8608 116.257 28.4205 115.817 28.0369C115.382 27.6487 114.794 27.4545 114.056 27.4545C113.402 27.4545 112.829 27.625 112.337 27.9659C111.849 28.3021 111.468 28.7779 111.194 29.3935C110.924 30.0043 110.789 30.7216 110.789 31.5455C110.789 32.3883 110.921 33.1222 111.186 33.7472C111.456 34.3722 111.835 34.8575 112.323 35.2031C112.815 35.5488 113.393 35.7216 114.056 35.7216C114.491 35.7216 114.887 35.6458 115.242 35.4943C115.597 35.3428 115.898 35.125 116.144 34.8409C116.39 34.5568 116.565 34.2159 116.669 33.8182H118.346C118.251 34.4621 118.016 35.0421 117.642 35.5582C117.273 36.0696 116.783 36.4768 116.172 36.7798C115.566 37.0781 114.861 37.2273 114.056 37.2273ZM119.796 37V26.0909H121.415V27.7386H121.529C121.728 27.1989 122.087 26.7609 122.608 26.4247C123.129 26.0885 123.716 25.9205 124.37 25.9205C124.493 25.9205 124.647 25.9228 124.831 25.9276C125.016 25.9323 125.156 25.9394 125.25 25.9489V27.6534C125.194 27.6392 125.063 27.6179 124.86 27.5895C124.661 27.5563 124.45 27.5398 124.228 27.5398C123.697 27.5398 123.224 27.651 122.807 27.8736C122.395 28.0914 122.069 28.3944 121.827 28.7827C121.59 29.1662 121.472 29.6042 121.472 30.0966V37H119.796ZM126.237 37V26.0909H127.913V37H126.237ZM127.089 24.2727C126.763 24.2727 126.481 24.1615 126.244 23.9389C126.012 23.7164 125.896 23.4489 125.896 23.1364C125.896 22.8239 126.012 22.5563 126.244 22.3338C126.481 22.1113 126.763 22 127.089 22C127.416 22 127.696 22.1113 127.928 22.3338C128.164 22.5563 128.283 22.8239 128.283 23.1364C128.283 23.4489 128.164 23.7164 127.928 23.9389C127.696 24.1615 127.416 24.2727 127.089 24.2727ZM129.983 41.0909V26.0909H131.603V27.8239H131.801C131.925 27.6345 132.095 27.393 132.313 27.0994C132.535 26.8011 132.853 26.536 133.265 26.304C133.681 26.0672 134.245 25.9489 134.955 25.9489C135.873 25.9489 136.683 26.1785 137.384 26.6378C138.085 27.0971 138.632 27.7481 139.025 28.5909C139.417 29.4337 139.614 30.428 139.614 31.5739C139.614 32.7292 139.417 33.7306 139.025 34.5781C138.632 35.4209 138.087 36.0743 137.391 36.5384C136.695 36.9976 135.892 37.2273 134.983 37.2273C134.283 37.2273 133.721 37.1113 133.3 36.8793C132.879 36.6425 132.554 36.375 132.327 36.0767C132.1 35.7737 131.925 35.5227 131.801 35.3239H131.659V41.0909H129.983ZM131.631 31.5455C131.631 32.3693 131.752 33.0961 131.993 33.7259C132.235 34.3509 132.587 34.8409 133.051 35.196C133.516 35.5464 134.084 35.7216 134.756 35.7216C135.457 35.7216 136.042 35.5369 136.51 35.1676C136.984 34.7936 137.339 34.2917 137.576 33.6619C137.817 33.0275 137.938 32.322 137.938 31.5455C137.938 30.7784 137.819 30.0871 137.583 29.4716C137.351 28.8513 136.998 28.3613 136.525 28.0014C136.056 27.6368 135.466 27.4545 134.756 27.4545C134.074 27.4545 133.501 27.6274 133.037 27.973C132.573 28.3139 132.223 28.7921 131.986 29.4077C131.749 30.0185 131.631 30.7311 131.631 31.5455ZM145.915 26.0909V27.5114H140.262V26.0909H145.915ZM141.909 23.4773H143.586V33.875C143.586 34.3485 143.654 34.7036 143.792 34.9403C143.934 35.1723 144.114 35.3286 144.331 35.4091C144.554 35.4848 144.788 35.5227 145.034 35.5227C145.219 35.5227 145.371 35.5133 145.489 35.4943C145.607 35.4706 145.702 35.4517 145.773 35.4375L146.114 36.9432C146 36.9858 145.842 37.0284 145.638 37.071C145.435 37.1184 145.176 37.142 144.864 37.142C144.391 37.142 143.926 37.0402 143.472 36.8366C143.022 36.633 142.648 36.3229 142.35 35.9062C142.056 35.4896 141.909 34.964 141.909 34.3295V23.4773Z" fill="#AAAAAA"/>
</svg>
